Coordinates
version=1
nRows=27
nColumns=12
inDegrees=yes

Units are S.I. units (second, meters, Newtons, ...)
Angles are in degrees

endheader
time	SC_y	SC_z	SC_x	AC_y	AC_z	AC_x	GH_y	GH_z	GH_yy	EL_x	PS_y
       0.0              -28.49          1.238          73.58          38.24         -3.152         -9.009         -174.8          4.348          -1.71          61.91          61.37
  0.001568              -28.49          1.238          73.58          38.25         -3.154          -9.01         -174.8          4.349          -1.71          61.92          61.37
  0.003137              -28.49          1.239          73.57          38.25         -3.155          -9.01         -174.7           4.35          -1.71          61.93          61.36
  0.004705              -28.49           1.24          73.57          38.26         -3.157         -9.011         -174.7           4.35          -1.71          61.94          61.35
  0.006274              -28.49           1.24          73.56          38.26         -3.159         -9.011         -174.6          4.351          -1.71          61.94          61.35
  0.007842              -28.49          1.241          73.55          38.26         -3.161         -9.012         -174.6          4.351         -1.709          61.95          61.34
   0.00941               -28.5          1.242          73.55          38.27         -3.163         -9.013         -174.5          4.352         -1.709          61.96          61.33
   0.01098               -28.5          1.243          73.54          38.27         -3.165         -9.014         -174.4          4.353         -1.709          61.97          61.32
   0.01255               -28.5          1.244          73.53          38.28         -3.168         -9.015         -174.3          4.354         -1.709          61.98          61.32
   0.01412               -28.5          1.245          73.53          38.28          -3.17         -9.016         -174.3          4.355         -1.709          61.99          61.31
   0.01568               -28.5          1.246          73.52          38.29         -3.173         -9.017         -174.2          4.356         -1.708          62.01           61.3
   0.01725               -28.5          1.247          73.51           38.3         -3.176         -9.018         -174.1          4.357         -1.708          62.02          61.29
   0.01882               -28.5          1.248           73.5           38.3         -3.179         -9.019         -174.0          4.358         -1.708          62.04          61.27
   0.02039              -28.51           1.25          73.49          38.31         -3.183          -9.02         -173.9          4.359         -1.708          62.05          61.26
   0.02196              -28.51          1.251          73.48          38.32         -3.187         -9.022         -173.7           4.36         -1.707          62.07          61.25
   0.02353              -28.51          1.253          73.46          38.33         -3.191         -9.023         -173.6          4.362         -1.707          62.09          61.23
   0.02509              -28.51          1.255          73.45          38.34         -3.195         -9.025         -173.5          4.363         -1.707          62.11          61.22
   0.02666              -28.52          1.257          73.44          38.35           -3.2         -9.026         -173.3          4.365         -1.706          62.13           61.2
   0.02823              -28.52          1.259          73.42          38.36         -3.206         -9.028         -173.2          4.367         -1.706          62.15          61.18
    0.0298              -28.52          1.261           73.4          38.37         -3.211          -9.03         -173.0          4.369         -1.705          62.18          61.16
   0.03137              -28.53          1.263          73.38          38.39         -3.218         -9.033         -172.8          4.371         -1.705          62.21          61.14
   0.03294              -28.53          1.266          73.36           38.4         -3.225         -9.035         -172.5          4.374         -1.704          62.24          61.11
    0.0345              -28.53          1.269          73.34          38.42         -3.233         -9.038         -172.3          4.376         -1.704          62.27          61.08
   0.03607              -28.54          1.273          73.31          38.44         -3.241         -9.041         -172.0           4.38         -1.703          62.31          61.05
   0.03764              -28.54          1.276          73.28          38.46         -3.251         -9.045         -171.7          4.383         -1.702          62.35          61.02
   0.03921              -28.55           1.28          73.25          38.48         -3.262         -9.048         -171.4          4.387         -1.701           62.4          60.98
   0.04078              -28.56          1.285          73.22          38.51         -3.274         -9.053         -171.0          4.391           -1.7          62.45          60.93
